<?xml version="1.0" encoding="UTF-8"?>
<svg xmlns="http://www.w3.org/2000/svg" xmlns:xlink="http://www.w3.org/1999/xlink" width="50pt" height="50pt" viewBox="0 0 50 50" version="1.1">
<g id="surface15191465">
<path style=" stroke:none;fill-rule:nonzero;fill:rgb(60.392157%,80.392157%,19.607843%);fill-opacity:1;" d="M 25 2 C 20.460938 2 16.585938 3.910156 13.980469 6.945312 C 11.378906 9.980469 10 14.078125 10 18.5 C 10 22.921875 11.378906 27.019531 13.980469 30.054688 C 16.585938 33.089844 20.460938 35 25 35 C 29.53125 35 33.394531 33.097656 36 30.074219 L 36 35 C 36 37.597656 35.179688 39.765625 33.550781 41.339844 C 31.917969 42.914062 29.363281 44 25.5 44 C 17.785156 44 15 39.933594 15 36 L 11 36 C 11 42.066406 16.214844 48 25.5 48 C 30.136719 48 33.832031 46.621094 36.324219 44.21875 C 38.820312 41.8125 40 38.476562 40 35 L 40 3 L 36 3 L 36 6.929688 C 33.394531 3.902344 29.53125 2 25 2 Z M 25 6 C 28.460938 6 31.085938 7.339844 32.980469 9.550781 C 34.878906 11.757812 36 14.914062 36 18.5 C 36 22.085938 34.878906 25.242188 32.980469 27.449219 C 31.085938 29.660156 28.460938 31 25 31 C 21.539062 31 18.914062 29.660156 17.019531 27.449219 C 15.121094 25.242188 14 22.085938 14 18.5 C 14 14.914062 15.121094 11.757812 17.019531 9.550781 C 18.914062 7.339844 21.539062 6 25 6 Z M 25 6 "/>
</g>
</svg>
